<?xml version="1.0" standalone="no"?>
<!DOCTYPE svg PUBLIC "-//W3C//DTD SVG 20010904//EN"
 "http://www.w3.org/TR/2001/REC-SVG-20010904/DTD/svg10.dtd">
<svg version="1.0" xmlns="http://www.w3.org/2000/svg"
 width="114.000000pt" height="120.000000pt" viewBox="0 0 114.000000 120.000000"
 preserveAspectRatio="xMidYMid meet">

<g transform="translate(0.000000,120.000000) scale(0.100000,-0.100000)"
fill="#000000" stroke="none">
<path d="M732 1160 c-66 -31 -159 -111 -193 -166 l-20 -33 -39 39 c-48 48
-130 75 -196 65 -61 -9 -153 -73 -198 -138 -54 -78 -77 -161 -77 -277 0 -220
77 -337 330 -504 69 -46 137 -95 150 -110 33 -35 47 -33 67 11 20 41 95 118
263 273 141 129 211 213 260 312 92 181 71 383 -49 492 -56 50 -97 66 -172 66
-49 0 -77 -7 -126 -30z m183 -81 c46 -41 61 -71 75 -150 21 -118 -26 -260
-133 -400 -23 -31 -95 -114 -161 -185 -65 -71 -132 -150 -149 -175 l-31 -46
-95 81 c-218 183 -287 282 -298 427 -14 199 80 369 205 369 69 0 112 -27 142
-88 14 -28 30 -54 37 -56 7 -3 27 23 49 65 63 119 160 188 266 189 50 0 62 -4
93 -31z"/>
</g>
</svg>
